<svg id="Bathroom_Icon" data-name="Bathroom Icon" xmlns="http://www.w3.org/2000/svg" width="39" height="39" viewBox="0 0 39 39">
  <path id="Icon_awesome-toilet" data-name="Icon awesome-toilet" d="M10.781,1.406A.47.47,0,0,0,11.25.938V.469A.47.47,0,0,0,10.781,0H.469A.47.47,0,0,0,0,.469V.938a.47.47,0,0,0,.469.469H.938V6C.346,6.293,0,6.647,0,7.031a5.618,5.618,0,0,0,2.543,4.7L1.916,13.79a.937.937,0,0,0,.9,1.21H8.438a.937.937,0,0,0,.9-1.21l-.627-2.057a5.618,5.618,0,0,0,2.543-4.7c0-.384-.346-.738-.937-1.034V1.406Zm-8.437.7a.235.235,0,0,1,.234-.234H3.984a.235.235,0,0,1,.234.234v.469a.235.235,0,0,1-.234.234H2.578a.235.235,0,0,1-.234-.234ZM5.625,7.969c-2.259,0-4.09-.419-4.09-.937s1.831-.937,4.09-.937,4.09.419,4.09.938-1.831.937-4.09.937Z" transform="translate(14 12)" fill="#000a3e"/>
  <g id="Ellipse_8" data-name="Ellipse 8" fill="none" stroke="#000a3e" stroke-width="3">
    <circle cx="19.5" cy="19.5" r="19.5" stroke="none"/>
    <circle cx="19.5" cy="19.5" r="18" fill="none"/>
  </g>
</svg>
