<svg id="email_icon" data-name="email icon" xmlns="http://www.w3.org/2000/svg" width="48.808" height="48.808" viewBox="0 0 48.808 48.808">
  <g id="XMLID_2163_" transform="translate(0.953 11.439)">
    <path id="XMLID_952_" d="M51.753,120l5.148,5.148V152.6a3.813,3.813,0,0,1-3.813,3.813H13.813A3.813,3.813,0,0,1,10,152.6V125.148L15.148,120Z" transform="translate(-10 -120)" fill="#005dff"/>
  </g>
  <g id="XMLID_2162_" transform="translate(2.07 32.221)">
    <path id="XMLID_519_" d="M24.412,353.634H63.687a3.8,3.8,0,0,0,2.7-1.117L51.867,338H51.8l-7.792,7.86-7.714-7.817h-.1L21.716,352.517A3.8,3.8,0,0,0,24.412,353.634Z" transform="translate(-21.716 -338)" fill="#005dff"/>
  </g>
  <g id="XMLID_2326_" transform="translate(0.953 11.439)">
    <path id="XMLID_518_" d="M33.408,148.641,56.9,125.148,51.753,120H15.148L10,125.148v.086Z" transform="translate(-10 -120)" fill="#005dff"/>
  </g>
  <g id="XMLID_2161_" transform="translate(6.101 0.953)">
    <path id="XMLID_506_" d="M100.606,30.622V10H64V30.622l18.26,18.5Z" transform="translate(-64 -10)" fill="#b2cefd"/>
  </g>
  <g id="XMLID_1056_" transform="translate(0 0)">
    <path id="XMLID_1322_" d="M48.528,15.913,43.66,11.044V.953A.953.953,0,0,0,42.707,0H28.663a.953.953,0,0,0,0,1.907H41.753V21.34L24.361,38.732,7.054,21.426V1.907H20.083a.953.953,0,0,0,0-1.907H6.1a.953.953,0,0,0-.953.953V11.044L.279,15.913A.953.953,0,0,0,0,16.587V44.041a4.772,4.772,0,0,0,4.766,4.766H44.041a4.772,4.772,0,0,0,4.766-4.766V16.587A.953.953,0,0,0,48.528,15.913ZM46.9,44.041a2.843,2.843,0,0,1-.28,1.232L33.569,32.221,46.9,18.888Zm-3.241-30.3,2.846,2.846L43.66,19.433ZM2.186,45.273a2.842,2.842,0,0,1-.28-1.232V18.974L15.2,32.264ZM5.148,19.519,2.258,16.63l2.889-2.889ZM4.766,46.9a2.842,2.842,0,0,1-1.232-.28l13.01-13.01,7.143,7.143a.953.953,0,0,0,1.348,0l7.186-7.186L45.273,46.622a2.842,2.842,0,0,1-1.232.28H4.766Z" transform="translate(0 0)" fill="#00088c"/>
    <path id="XMLID_1377_" d="M246.633,1.907a.954.954,0,0,0,.953-.953.953.953,0,1,0-.953.953Z" transform="translate(-222.26 0)" fill="#00088c"/>
    <path id="XMLID_1555_" d="M149.093,70.042a10.355,10.355,0,0,0,2.7,13.18,10.464,10.464,0,0,0,6.1,2.195h.027a.953.953,0,0,0,.026-1.906A8.475,8.475,0,0,1,155.6,66.966a8.473,8.473,0,0,1,10.68,5.61,7.423,7.423,0,0,1-.457,4.941,2.6,2.6,0,0,1-2.4,1.77.987.987,0,0,1-.689-.316,1.5,1.5,0,0,1-.424-1.062V70.027a.953.953,0,1,0-1.907,0v.3a4.162,4.162,0,0,0-2.7-.974c-2.408,0-4.9,2.087-4.9,5.58A6.385,6.385,0,0,0,154.18,79a4.477,4.477,0,0,0,3.424,1.721,4.21,4.21,0,0,0,3.1-1.411,3.343,3.343,0,0,0,.685,1.009,2.876,2.876,0,0,0,2.041.877,4.508,4.508,0,0,0,4.17-2.972,9.3,9.3,0,0,0,.524-6.152l-.008-.03a10.366,10.366,0,0,0-19.02-2ZM157.6,78.81c-1.594,0-2.891-1.738-2.891-3.874,0-2.3,1.521-3.673,2.991-3.673,1.584,0,2.691,1.5,2.691,3.645S159.143,78.81,157.6,78.81Z" transform="translate(-133.707 -58.49)" fill="#00088c"/>
  </g>
</svg>
