<svg id="Area_Icon" data-name="Area Icon" xmlns="http://www.w3.org/2000/svg" width="39" height="39" viewBox="0 0 39 39">
  <g id="Ellipse_9" data-name="Ellipse 9" fill="none" stroke="#000a3e" stroke-width="3">
    <circle cx="19.5" cy="19.5" r="19.5" stroke="none"/>
    <circle cx="19.5" cy="19.5" r="18" fill="none"/>
  </g>
  <path id="Path_211" data-name="Path 211" d="M272.6,379.579c-.115.269-.225.54-.344.825l-.417-.155v11.794h-1.956v-11.9H256.322v11.9H254.4v-11.8l-.426.16c-.123-.306-.244-.606-.364-.906-.032-.08.037-.092.085-.114.536-.246,1.072-.493,1.609-.735q3.838-1.73,7.675-3.459a.279.279,0,0,1,.255,0q3.475,1.566,6.952,3.127c.776.349,1.548.707,2.326,1.053C272.626,379.424,272.642,379.476,272.6,379.579Zm-4.3,7.567a.441.441,0,0,1-.311.465c-.119.048-.244.085-.371.129.016.036.023.058.035.078a1.747,1.747,0,0,1,.169,1.186c-.081.444-.173.886-.229,1.333-.046.372-.046.75-.068,1.125a2.9,2.9,0,0,1-.031.331.247.247,0,0,1-.26.23c-.38.012-.76.018-1.14.024-.1,0-.253-.153-.268-.279a3.314,3.314,0,0,1-.014-.332c0-.1,0-.2,0-.312h-5.381c0,.164,0,.328,0,.493a.408.408,0,0,1-.163.374.251.251,0,0,1-.133.055q-.558,0-1.117-.02a.246.246,0,0,1-.269-.229,1.208,1.208,0,0,1-.028-.271,9.048,9.048,0,0,0-.224-2.073,6.266,6.266,0,0,1-.113-.835,1.469,1.469,0,0,1,.254-.872c-.07-.026-.135-.047-.2-.073a1.926,1.926,0,0,1-.3-.129.377.377,0,0,1-.19-.4.427.427,0,0,1,.365-.372,5.9,5.9,0,0,1,.77.02c.123.011.179-.015.212-.134.146-.518.3-1.033.45-1.55l0-.012a1.022,1.022,0,0,1,1.041-.827,29.794,29.794,0,0,1,3.907-.059,9.673,9.673,0,0,1,1.107.135.7.7,0,0,1,.611.523c.166.565.341,1.128.512,1.692.006.019.01.038.016.057.075.228.062.182.263.165s.419-.027.629-.025A.463.463,0,0,1,268.3,387.146Zm-7.91,2.512a.427.427,0,0,0-.379-.41.413.413,0,1,0-.028.825A.4.4,0,0,0,260.386,389.659Zm5.963-2.716a.216.216,0,0,0,0-.058c-.17-.592-.343-1.185-.512-1.777a.219.219,0,0,0-.207-.166c-.3-.035-.6-.09-.908-.1-.736-.02-1.473-.024-2.21-.024a9.816,9.816,0,0,0-1.952.131.169.169,0,0,0-.153.133c-.161.554-.327,1.107-.489,1.661-.018.062-.026.128-.04.2A19.362,19.362,0,0,1,266.349,386.943Zm.316,2.717a.449.449,0,0,0-.43-.411c-.154,0-.416.2-.386.408a.389.389,0,0,0,.405.416A.433.433,0,0,0,266.665,389.659Zm-8.433-8.125c-.408,0-.816,0-1.224.007-.04,0-.113.038-.114.061-.01.168-.005.337-.005.5h12.457v-.562c-.053,0-.092-.006-.13-.006Zm-1.347-.392h12.464V380.6H256.885Zm12.283,1.368c-2.009,0-4.018-.013-6.027-.012-1.993,0-3.986.01-5.98.017-.089,0-.178.014-.274.022,0,.139.007.262,0,.383s.034.151.154.151q6.081,0,12.162,0h.135v-.558Z" transform="translate(-243.666 -364.105)" fill="#000a3e"/>
</svg>
