<svg xmlns="http://www.w3.org/2000/svg" width="24.44" height="35.05" viewBox="0 0 24.44 35.05">
  <path id="Icon_metro-location" data-name="Icon metro-location" d="M20.575,1.928c-6.749,0-12.22,4.9-12.22,10.953,0,10.953,12.22,24.1,12.22,24.1s12.22-13.144,12.22-24.1c0-6.049-5.471-10.953-12.22-10.953Zm0,17.662c-4.134,0-7.485-3-7.485-6.709s3.351-6.709,7.485-6.709,7.485,3,7.485,6.709S24.709,19.59,20.575,19.59ZM15.84,12.881a4.51,4.51,0,0,1,4.735-4.244,4.51,4.51,0,0,1,4.735,4.244,4.51,4.51,0,0,1-4.735,4.244A4.51,4.51,0,0,1,15.84,12.881Z" transform="translate(-8.355 -1.928)" fill="#000a3e"/>
</svg>
