<svg xmlns="http://www.w3.org/2000/svg" width="43.396" height="48.619" viewBox="0 0 43.396 48.619">
  <g id="location_icon" data-name="location icon" transform="translate(-27.499 0)">
    <g id="XMLID_1062_" transform="translate(28.449 0.949)">
      <path id="XMLID_64_" d="M37.5,397.8a6.148,6.148,0,0,1,6.036-6.146,8.39,8.39,0,0,1,15.352.451,6.15,6.15,0,0,1,8.469,5.7H37.5Z" transform="translate(-37.499 -351.081)" fill="#cbe558"/>
      <path id="XMLID_63_" d="M37.5,397.8a6.148,6.148,0,0,1,6.036-6.146,8.39,8.39,0,0,1,15.352.451,6.15,6.15,0,0,1,8.469,5.7H37.5Z" transform="translate(-37.499 -351.081)" fill="#b2cefd"/>
      <path id="XMLID_1021_" d="M86.911,55.871,74.13,37.615a17.559,17.559,0,1,1,28.769,0L90.119,55.871A1.958,1.958,0,0,1,86.911,55.871Z" transform="translate(-67.778 -9.986)" fill="#005dff"/>
      <path id="XMLID_1016_" d="M276.741,429.583a4.272,4.272,0,0,0-4.195-4.271,5.831,5.831,0,0,0-10.669.314,4.274,4.274,0,0,0-5.885,3.958Z" transform="translate(-235.244 -382.862)" fill="#b2cefd"/>
    </g>
    <path id="XMLID_1017_" d="M153.939,99.317l9.691-6.837,9.691,6.837Z" transform="translate(-114.433 -83.698)" fill="#3983ff"/>
    <path id="XMLID_2131_" d="M172.966,164.48h15.769v11.4H172.966Z" transform="translate(-131.653 -148.86)" fill="#b2cefd"/>
    <path id="XMLID_2132_" d="M231.993,208.48h4.558V215.7h-4.558Z" transform="translate(-185.075 -188.682)" fill="#3983ff"/>
    <g id="XMLID_105_" transform="translate(27.499 0)">
      <path id="XMLID_2372_" d="M69.4,44.009a5.189,5.189,0,0,0-3.053-1.518,6.788,6.788,0,0,0-9.96-1.992l7.964-11.377A18.512,18.512,0,0,0,39.642,2.644a.95.95,0,1,0,.98,1.627A16.612,16.612,0,0,1,62.792,28.033L52.657,42.51a5.238,5.238,0,0,0-4.243,3.849c-.019-.023-12.836-18.327-12.836-18.327A16.621,16.621,0,0,1,34.95,9.946a.95.95,0,0,0-1.627-.979,18.522,18.522,0,0,0,.7,20.156L39.04,36.29a9.365,9.365,0,0,0-5.152,4.318A7.1,7.1,0,0,0,27.5,47.67a.95.95,0,0,0,.95.95h41.5a.95.95,0,0,0,.95-.95A5.191,5.191,0,0,0,69.4,44.009ZM34.5,42.473a.95.95,0,0,0,.84-.541,7.456,7.456,0,0,1,4.844-4.005l6.155,8.793H29.486A5.229,5.229,0,0,1,34.5,42.473ZM50.285,46.72a3.325,3.325,0,0,1,4.439-2.129.949.949,0,0,0,1.238-.522,4.881,4.881,0,0,1,8.931-.262.95.95,0,0,0,.84.541,3.343,3.343,0,0,1,3.122,2.372H50.285Z" transform="translate(-27.499 0)" fill="#00088c"/>
      <path id="XMLID_2374_" d="M116.062,56.044a.95.95,0,1,0-.671-.278A.955.955,0,0,0,116.062,56.044Z" transform="translate(-106.792 -49.003)" fill="#00088c"/>
      <path id="XMLID_3154_" d="M144.889,91.217h.857v10.446a.95.95,0,0,0,.95.95h15.769a.95.95,0,0,0,.95-.95V91.217h.857a.95.95,0,0,0,.547-1.726l-9.691-6.837a.95.95,0,0,0-1.095,0l-9.691,6.837a.95.95,0,0,0,.547,1.726Zm8.362,9.5V95.4h2.659v5.318Zm8.264,0h-3.706V94.446a.95.95,0,0,0-.95-.95H152.3a.95.95,0,0,0-.95.95v6.267h-3.706v-9.5h13.869ZM154.58,84.592l6.7,4.725h-13.4Z" transform="translate(-132.882 -74.648)" fill="#00088c"/>
    </g>
  </g>
</svg>
