<svg xmlns="http://www.w3.org/2000/svg" width="43.751" height="48.918" viewBox="0 0 43.751 48.918">
  <g id="phonecall_icon" data-name="phonecall icon" transform="translate(-27.042 0)">
    <g id="XMLID_1261_" transform="translate(27.992 0.953)">
      <g id="XMLID_1948_">
        <path id="XMLID_1949_" d="M45.589,10.473l-1.322.763a14.56,14.56,0,0,0-5.329,19.89L49.666,49.706a14.56,14.56,0,0,0,19.89,5.329l1.322-.763A3.643,3.643,0,0,0,72.211,49.3l-3.728-6.457A3.643,3.643,0,0,0,63.506,41.5l-3.89,2.246a1.748,1.748,0,0,1-2.387-.64L48.471,27.942a1.748,1.748,0,0,1,.64-2.387L53,23.309a3.643,3.643,0,0,0,1.334-4.977l-3.768-6.526a3.643,3.643,0,0,0-4.977-1.334Z" transform="translate(-36.985 -9.984)" fill="#005dff"/>
      </g>
    </g>
    <path id="XMLID_45_" d="M282.758,336.621a3.643,3.643,0,0,0-4.977-1.333l-3.887,2.244,7.22,12.506a14.625,14.625,0,0,0,2.716-1.22l1.322-.763a3.643,3.643,0,0,0,1.333-4.977Z" transform="translate(-223.268 -302.814)" fill="#fff"/>
    <g id="XMLID_43_" transform="translate(32.862 0.953)">
      <path id="XMLID_44_" d="M95.213,25.552,99.1,23.308a3.643,3.643,0,0,0,1.334-4.977l-3.768-6.526a3.643,3.643,0,0,0-4.977-1.334l-1.322.763a14.625,14.625,0,0,0-2.413,1.741Z" transform="translate(-87.953 -9.983)" fill="#fff"/>
    </g>
    <g id="XMLID_1934_" transform="translate(52.502 4.882)">
      <g id="XMLID_1935_" transform="translate(0)">
        <g id="XMLID_1936_">
          <g id="XMLID_1946_" transform="translate(0 7.491)">
            <path id="XMLID_1947_" d="M299.268,141.885a1.91,1.91,0,0,1-.191-1.453,5.847,5.847,0,0,0-4.13-7.153,1.915,1.915,0,1,1,.991-3.7,9.681,9.681,0,0,1,6.838,11.844,1.915,1.915,0,0,1-3.509.462Z" transform="translate(-293.527 -129.514)" fill="#b2cefd"/>
          </g>
          <g id="XMLID_1944_" transform="translate(2.007)">
            <path id="XMLID_1945_" d="M325.761,72.975a1.91,1.91,0,0,1-.191-1.453,13.611,13.611,0,0,0-9.613-16.651,1.915,1.915,0,0,1,.991-3.7A17.445,17.445,0,0,1,329.27,72.513a1.915,1.915,0,0,1-3.509.462Z" transform="translate(-314.537 -51.106)" fill="#b2cefd"/>
          </g>
        </g>
      </g>
    </g>
    <g id="XMLID_1068_" transform="translate(27.042 -0.001)">
      <path id="XMLID_1089_" d="M285.655,125.159a4.89,4.89,0,0,1,3.454,5.982,2.871,2.871,0,1,0,5.546,1.486,10.638,10.638,0,0,0-7.514-13.014,2.871,2.871,0,1,0-1.486,5.545Zm-.184-3.021a.961.961,0,0,1,.926-.712.966.966,0,0,1,.25.033,8.725,8.725,0,0,1,6.162,10.674.96.96,0,0,1-1.854-.5,6.8,6.8,0,0,0-4.8-8.323A.961.961,0,0,1,285.471,122.138Z" transform="translate(-259.023 -108.097)" fill="#00088c"/>
      <path id="XMLID_1141_" d="M308.143,41.206a2.871,2.871,0,1,0-1.486,5.546A12.654,12.654,0,0,1,315.6,62.232a2.871,2.871,0,1,0,5.546,1.486A18.4,18.4,0,0,0,308.143,41.206Zm11.152,22.017a.96.96,0,0,1-1.758.232h0a.954.954,0,0,1-.1-.728,14.567,14.567,0,0,0-10.289-17.821.96.96,0,1,1,.5-1.854A16.489,16.489,0,0,1,319.295,63.224Z" transform="translate(-278.018 -37.181)" fill="#00088c"/>
      <path id="XMLID_1144_" d="M60.317,33.33a4.6,4.6,0,0,0-6.282-1.683l-3.89,2.246a.792.792,0,0,1-1.082-.29L40.305,18.434a.792.792,0,0,1,.29-1.082l3.89-2.246a4.6,4.6,0,0,0,1.683-6.282L42.4,2.3A4.6,4.6,0,0,0,36.119.615L34.8,1.378a15.533,15.533,0,0,0-5.679,21.195l3.219,5.575a.955.955,0,1,0,1.655-.955l-3.219-5.575A13.629,13.629,0,0,1,32.645,5.493L38.9,16.325a2.706,2.706,0,0,0-.249,3.064l8.758,15.169a2.706,2.706,0,0,0,2.778,1.317L56.4,46.643A13.624,13.624,0,0,1,41.5,40.2l-3.21-5.56a.955.955,0,0,0-1.655.955l3.21,5.56a15.414,15.414,0,0,0,9.421,7.229,15.6,15.6,0,0,0,4.041.535,15.426,15.426,0,0,0,7.733-2.085l1.322-.763a4.6,4.6,0,0,0,1.683-6.282ZM35.753,3.032l1.322-.763a2.688,2.688,0,0,1,3.672.984l3.768,6.526a2.691,2.691,0,0,1-.984,3.672l-3.063,1.768L34.086,4.167a13.658,13.658,0,0,1,1.667-1.134Zm26.906,39.75a2.671,2.671,0,0,1-1.252,1.632l-1.322.763a13.794,13.794,0,0,1-1.814.878L51.928,35.07,54.991,33.3a2.691,2.691,0,0,1,3.672.984l3.728,6.457a2.67,2.67,0,0,1,.268,2.04Z" transform="translate(-27.042 0.001)" fill="#00088c"/>
      <path id="XMLID_1148_" d="M104.68,318.534a.956.956,0,1,0,.675.28A.965.965,0,0,0,104.68,318.534Z" transform="translate(-96.399 -288.102)" fill="#00088c"/>
    </g>
  </g>
</svg>
