<svg xmlns="http://www.w3.org/2000/svg" width="186.286" height="174.822" viewBox="0 0 186.286 174.822">
  <g id="sale_icon" data-name="sale icon" transform="translate(-26.574 -52.83)">
    <path id="Path_233" data-name="Path 233" d="M187.169,52.969l-48.49,7.242a25.19,25.19,0,0,0-14.1,7.1l-94.32,94.307a12.6,12.6,0,0,0,0,17.812l44.529,44.529a12.6,12.6,0,0,0,17.812,0L186.965,129.6a25.19,25.19,0,0,0,7.085-13.98l3.778-24.516,3.656-23.763a12.595,12.595,0,0,0-14.314-14.374ZM183.892,83.7a9.515,9.515,0,1,1,2.629-5.239,9.515,9.515,0,0,1-2.629,5.239Z" fill="#3983ff"/>
    <path id="Path_234" data-name="Path 234" d="M194.847,56.99,191.6,78.134l-3.778,24.516a25.19,25.19,0,0,1-7.085,13.98L86.381,210.981a12.6,12.6,0,0,1-17.812,0L27.242,169.657a12.538,12.538,0,0,0,3.1,12.538l44.529,44.529a12.6,12.6,0,0,0,17.812,0l94.361-94.361a25.19,25.19,0,0,0,7.085-13.98L197.9,93.868,201.557,70.1a12.6,12.6,0,0,0-6.71-13.114Z" transform="translate(-0.074 -2.761)" fill="#00088c"/>
    <g id="Group_1136" data-name="Group 1136" transform="translate(56.435 82.233)">
      <path id="Path_235" data-name="Path 235" d="M149.335,372.552a9.446,9.446,0,0,0-13.36,0L131.523,377a3.149,3.149,0,0,1-4.455,0l-4.452-4.452a3.149,3.149,0,0,1,0-4.455l8.9-8.9a3.148,3.148,0,1,0-4.453-4.453l-8.9,8.908a9.446,9.446,0,0,0,0,13.36l4.452,4.452a9.446,9.446,0,0,0,13.36,0l4.452-4.452a3.149,3.149,0,0,1,4.455,0l4.452,4.449a3.149,3.149,0,0,1,0,4.455l-8.9,8.908a3.148,3.148,0,1,0,4.453,4.453l8.907-8.9a9.446,9.446,0,0,0,0-13.36Z" transform="translate(-119.396 -288.029)" fill="#f1f2f2"/>
      <path id="Path_236" data-name="Path 236" d="M239.107,311.962l-33.4-20.038a3.149,3.149,0,0,0-3.845.472l-4.455,4.455a3.149,3.149,0,0,0-.472,3.845l20.038,33.4a3.15,3.15,0,0,0,5.4-3.243l-5.416-9.024,9.881-9.881,9.024,5.416a3.15,3.15,0,0,0,3.243-5.4Zm-25.489,4.3L203.6,299.574l.976-.976,16.688,10.019Z" transform="translate(-173.225 -246.646)" fill="#f1f2f2"/>
      <path id="Path_237" data-name="Path 237" d="M299.829,256.654,288.7,267.788,264.2,243.3a3.148,3.148,0,1,0-4.453,4.453l26.717,26.716a3.149,3.149,0,0,0,4.452,0l13.36-13.36a3.148,3.148,0,1,0-4.453-4.453Z" transform="translate(-214.608 -214.054)" fill="#f1f2f2"/>
      <path id="Path_238" data-name="Path 238" d="M366.573,167.928l-8.908,8.908-8.9-8.908,4.452-4.452a3.148,3.148,0,1,0-4.453-4.453l-4.452,4.453-8.908-8.9,8.908-8.908a3.148,3.148,0,1,0-4.453-4.453l-11.134,11.134a3.149,3.149,0,0,0,0,4.452l26.717,26.717a3.149,3.149,0,0,0,4.452,0l11.134-11.134a3.148,3.148,0,1,0-4.453-4.453Z" transform="translate(-260.391 -146.289)" fill="#f1f2f2"/>
    </g>
    <path id="Path_239" data-name="Path 239" d="M433.26,215.665l-35.65,35.65c.148,1.159.255,2.069.3,2.33,4.052,25.8,15,43.814,26.613,43.814,15.359,0,28.338-30.281,28.338-66.123,0-18.782-3.464-36.254-9.559-48.855l-2.954,19.207a25.189,25.189,0,0,1-7.085,13.977Z" transform="translate(-246.296 -86.063)" fill="none"/>
    <path id="Path_240" data-name="Path 240" d="M523.458,89.091,526.38,70.1a12.6,12.6,0,0,0-6.7-13.114l-3.25,21.144-.4,2.576a37.5,37.5,0,0,1,7.428,8.382Z" transform="translate(-324.903 -2.761)" fill="#00088c"/>
    <path id="Path_241" data-name="Path 241" d="M435.939,129.076c-.63-1.13-1.313-2.179-1.993-3.2a37.5,37.5,0,0,0-7.421-8.4,20.416,20.416,0,0,0-12.91-5.085,3.149,3.149,0,0,0,0,6.3,16.392,16.392,0,0,1,11.742,6.329,40.148,40.148,0,0,1,5.114,7.17c.677,1.184,1.3,2.478,1.924,3.778,6.1,12.592,9.559,30.064,9.559,48.846,0,35.842-12.979,66.123-28.338,66.123-11.616,0-22.561-18.017-26.613-43.814-.041-.261-.148-1.171-.3-2.33l-5.523,5.526c4.966,28.565,17.564,46.916,32.432,46.916,19.421,0,34.636-31.8,34.636-72.42C448.251,163.035,443.761,142.713,435.939,129.076Z" transform="translate(-235.391 -39.535)" fill="#b2cefd"/>
  </g>
</svg>
